<?xml version="1.0" standalone="no"?>
<!DOCTYPE svg PUBLIC "-//W3C//DTD SVG 20010904//EN"
 "http://www.w3.org/TR/2001/REC-SVG-20010904/DTD/svg10.dtd">
<svg version="1.0" xmlns="http://www.w3.org/2000/svg"
 width="1023.000000pt" height="1018.000000pt" viewBox="0 0 1023.000000 1018.000000"
 preserveAspectRatio="xMidYMid meet">
<metadata>
Created by potrace 1.15, written by Peter Selinger 2001-2017
</metadata>
<g transform="translate(0.000000,1018.000000) scale(0.100000,-0.100000)"
fill="#000000" stroke="none">
<path d="M3183 8064 c-127 -135 -282 -360 -384 -557 -28 -54 -52 -97 -54 -95
-2 2 3 32 10 68 30 146 57 331 51 355 -10 41 -57 34 -94 -12 -114 -145 -270
-437 -337 -632 -39 -114 -85 -287 -85 -320 0 -41 17 -20 29 37 61 279 181 559
348 810 74 113 95 134 114 115 12 -12 -25 -243 -72 -452 -39 -178 -29 -191 34
-43 127 297 457 772 536 772 36 0 54 -57 46 -144 -12 -128 -41 -243 -239 -940
-123 -432 -193 -693 -187 -699 6 -6 15 10 25 44 138 482 369 1303 385 1364 46
183 52 335 16 375 -35 39 -73 27 -142 -46z"/>
<path d="M5240 8045 c-42 -25 -205 -74 -296 -90 -48 -8 -163 -20 -256 -26
-152 -10 -170 -10 -187 5 -23 21 -63 20 -109 -3 -25 -12 -71 -20 -143 -25
-190 -12 -373 -52 -480 -107 -67 -33 -143 -98 -165 -140 -24 -47 0 -40 37 9
81 111 245 174 532 208 76 8 141 14 143 11 3 -2 -29 -37 -69 -76 -165 -159
-280 -370 -327 -593 l-11 -58 -86 -57 c-117 -78 -310 -173 -350 -173 -22 0
-37 7 -47 22 -22 30 -20 46 9 104 34 66 32 70 -14 33 -31 -24 -46 -30 -65 -25
-56 14 -14 76 51 76 18 0 33 5 33 10 0 14 -82 12 -101 -3 -9 -7 -21 -22 -28
-35 -18 -34 8 -72 49 -72 28 0 30 -2 30 -41 0 -32 6 -47 30 -71 26 -25 36 -29
63 -24 45 8 237 105 331 166 43 28 80 50 81 48 2 -2 8 -34 13 -71 19 -119 76
-188 169 -203 72 -11 159 25 407 166 126 71 233 130 237 130 5 0 9 -8 9 -18 0
-27 42 -62 74 -62 37 0 65 16 98 54 l27 31 1 -112 0 -112 -62 -47 c-185 -140
-378 -327 -413 -399 -52 -108 13 -207 116 -176 44 13 132 90 194 171 83 108
146 246 175 383 l11 55 107 74 c59 41 140 96 180 121 l72 47 0 -43 c0 -49 19
-81 60 -102 69 -36 152 0 166 71 6 33 8 34 51 34 58 0 182 26 239 50 41 18 48
18 67 5 12 -8 31 -15 43 -15 32 0 33 -6 8 -58 -13 -26 -24 -63 -24 -82 -4 -71
0 -110 10 -110 6 0 39 24 74 54 95 81 283 185 334 186 8 0 -6 -36 -37 -94 -57
-104 -61 -121 -30 -113 21 6 69 -10 69 -23 0 -4 -39 -49 -86 -101 -110 -120
-276 -325 -331 -407 -49 -72 -56 -119 -23 -152 45 -45 127 -14 229 88 145 145
250 360 251 512 1 62 8 73 117 175 l63 58 24 -27 c27 -28 63 -34 97 -15 16 8
30 7 60 -5 43 -17 94 -21 85 -7 -3 5 -21 12 -39 15 -52 10 -77 32 -77 71 0 24
-7 39 -26 54 -15 11 -31 18 -36 15 -11 -7 0 -61 19 -91 13 -20 12 -23 -7 -33
-17 -9 -26 -8 -46 5 -29 19 -30 34 -4 68 11 14 17 28 12 31 -4 2 -65 -49 -134
-115 l-126 -119 -34 17 c-18 10 -35 19 -37 20 -2 2 19 48 48 102 28 55 47 102
42 105 -11 7 -113 -30 -191 -69 -64 -32 -190 -117 -215 -145 -26 -29 -35 -25
-35 19 0 49 22 112 55 155 14 18 25 36 25 39 0 3 -22 4 -48 0 -35 -4 -51 -1
-60 10 -11 12 -7 18 24 36 30 18 34 24 24 36 -13 16 -48 20 -66 7 -6 -4 -17
-20 -25 -36 -18 -38 -105 -71 -229 -88 l-90 -12 -34 37 c-29 32 -39 37 -80 37
-25 0 -46 5 -46 10 0 6 -4 10 -9 10 -5 0 -100 -61 -212 -135 -111 -74 -205
-135 -208 -135 -3 0 -6 44 -7 98 0 107 -10 176 -24 167 -5 -3 -20 -29 -33 -58
-30 -66 -73 -90 -116 -66 -14 8 -27 24 -29 36 -6 40 64 93 124 93 14 0 24 6
24 14 0 29 -106 -1 -155 -44 -32 -28 -483 -281 -536 -301 -160 -61 -279 23
-279 195 l0 64 79 66 c191 159 370 387 472 600 l41 86 67 0 c100 0 273 18 396
41 120 22 295 85 295 106 0 16 -9 16 -40 -2z m-755 -155 c17 -27 -146 -289
-275 -443 -77 -92 -241 -247 -261 -247 -23 0 41 192 104 312 59 115 151 234
243 315 57 50 74 59 118 64 28 3 54 7 58 8 4 0 10 -4 13 -9z m952 -765 c81
-17 84 -19 71 -55 -27 -78 -136 -78 -168 -1 -16 40 -6 85 18 76 9 -4 45 -13
79 -20z m-531 -313 c-39 -153 -121 -298 -232 -409 -81 -81 -127 -102 -174 -78
-31 16 -40 33 -40 76 0 52 40 111 144 214 101 100 305 270 313 261 3 -2 -2
-31 -11 -64z m1439 -60 c-46 -156 -127 -291 -242 -403 -79 -77 -133 -107 -172
-94 -24 7 -35 37 -27 71 11 44 237 329 386 488 l65 69 3 -37 c2 -20 -4 -62
-13 -94z"/>
<path d="M7110 7848 c-22 -35 -70 -122 -107 -194 l-65 -131 -93 -6 c-188 -13
-335 -59 -399 -126 -43 -45 -24 -50 25 -7 70 59 193 96 378 112 80 7 84 6 76
-12 -23 -55 -64 -241 -70 -319 -15 -199 48 -336 157 -335 73 1 328 182 414
296 52 67 13 47 -74 -39 -90 -90 -197 -174 -267 -209 -88 -46 -161 -13 -190
86 -31 105 -11 341 42 481 l19 50 223 7 c243 7 349 18 468 48 84 22 220 85
268 124 51 41 21 39 -44 -3 -154 -99 -300 -131 -639 -139 -140 -4 -256 -4
-258 0 -7 10 96 209 151 294 46 72 52 84 35 84 -5 0 -28 -28 -50 -62z"/>
<path d="M7980 7194 c-93 -41 -174 -63 -265 -71 -72 -6 -94 2 -108 39 -3 9
-13 5 -33 -13 -46 -42 -70 -51 -84 -34 -18 22 14 55 52 55 15 0 28 5 28 10 0
19 -69 11 -90 -10 -34 -34 -21 -90 21 -90 9 0 33 11 53 25 34 23 39 24 59 10
30 -21 125 -19 225 5 97 23 237 85 227 100 -3 5 -7 10 -8 9 -1 -1 -36 -16 -77
-35z"/>
<path d="M8941 6724 c235 -247 359 -548 359 -874 0 -204 -39 -371 -130 -555
-65 -132 -133 -220 -324 -422 -87 -92 -178 -193 -202 -226 -80 -108 -134 -242
-134 -333 0 -56 26 -137 55 -172 47 -56 82 -65 285 -73 257 -10 361 -41 452
-136 20 -21 47 -60 60 -88 21 -45 23 -64 22 -190 -1 -122 -4 -151 -28 -230
-51 -168 -126 -292 -289 -473 -259 -288 -519 -443 -1027 -610 -549 -181 -909
-239 -1427 -229 -371 6 -620 39 -1093 143 -594 130 -952 265 -1387 526 -297
178 -519 353 -784 618 -251 251 -434 479 -593 743 -32 53 -61 97 -63 97 -10 0
111 -198 203 -332 479 -692 1224 -1256 2017 -1528 310 -106 889 -236 1266
-285 696 -88 1330 -9 2074 261 456 165 739 370 1004 726 137 183 213 421 200
626 -10 173 -76 278 -217 350 -111 55 -199 73 -400 79 -182 6 -208 13 -240 65
-34 57 -36 128 -5 223 36 113 99 205 247 364 179 192 267 298 320 387 214 363
236 802 58 1179 -74 154 -201 324 -311 415 -45 37 -40 30 32 -46z"/>
<path d="M5026 6464 c-14 -13 -16 -57 -16 -325 l0 -309 -325 0 -325 0 0 303
c0 222 -3 306 -12 315 -17 17 -42 15 -61 -6 -15 -17 -17 -78 -17 -666 0 -427
4 -654 10 -667 12 -21 50 -25 68 -7 9 9 12 95 12 325 l0 313 325 0 325 0 0
-306 c0 -191 4 -313 10 -325 12 -21 50 -25 68 -7 17 17 17 1349 0 1366 -17 17
-44 15 -62 -4z"/>
<path d="M792 6438 c-16 -16 -15 -55 1 -65 6 -4 104 -10 217 -13 l205 -5 3
-619 c1 -451 5 -623 14 -633 6 -8 23 -13 37 -11 l26 3 5 630 5 630 198 5 c206
5 216 8 217 51 0 38 -10 39 -470 39 -334 0 -449 -3 -458 -12z"/>
<path d="M1992 6438 c-9 -9 -12 -170 -12 -665 0 -635 1 -653 19 -663 12 -6
127 -10 305 -10 245 0 287 2 300 16 19 18 20 28 6 55 -10 18 -24 19 -275 19
l-265 0 0 265 0 265 214 0 c182 0 217 2 230 16 20 19 20 24 0 52 -15 22 -19
22 -230 22 l-214 0 0 275 0 275 231 0 c140 0 238 4 250 10 21 12 25 50 7 68
-9 9 -86 12 -283 12 -197 0 -274 -3 -283 -12z"/>
<path d="M3519 6429 c-231 -34 -331 -90 -421 -240 -84 -139 -128 -303 -128
-477 0 -265 104 -459 298 -555 85 -42 86 -42 196 -42 103 0 115 2 166 29 61
32 165 127 194 178 15 24 3 16 -45 -33 -137 -140 -269 -176 -436 -118 -185 63
-303 230 -334 468 -27 212 52 490 179 632 76 84 222 137 440 158 l87 8 -70 0
c-38 1 -95 -3 -126 -8z"/>
<path d="M5581 6421 c-15 -27 -15 -1284 -1 -1312 12 -22 52 -25 69 -6 7 10 12
176 13 558 l3 544 59 -105 c160 -284 464 -785 578 -953 36 -53 43 -58 71 -55
l32 3 0 655 0 655 -23 3 c-53 8 -52 23 -52 -569 0 -302 -4 -549 -8 -549 -22 0
-535 863 -671 1130 -13 24 -58 25 -70 1z"/>
<path d="M6896 6414 c-14 -14 -16 -86 -16 -648 0 -524 2 -636 14 -645 9 -8
110 -11 351 -9 309 3 339 4 349 21 8 12 8 22 0 35 -10 15 -40 17 -325 22
l-314 5 -3 278 -2 277 228 0 c164 0 231 3 240 12 17 17 15 44 -4 62 -13 14
-49 16 -240 16 l-224 0 0 250 0 250 293 0 c308 0 317 1 317 45 0 44 -8 45
-336 45 -271 0 -315 -2 -328 -16z"/>
<path d="M7887 6397 c-12 -12 -16 -24 -11 -35 15 -33 22 -263 23 -739 1 -424
3 -483 17 -497 19 -19 35 -20 57 -3 15 11 17 43 19 297 l3 285 160 3 c190 3
195 1 275 -105 62 -82 126 -209 183 -362 48 -129 69 -154 107 -123 l24 19 -33
93 c-70 201 -177 405 -246 470 -33 31 -32 46 4 65 74 38 123 156 125 296 0 78
-3 92 -33 153 -75 153 -218 208 -525 204 -112 -1 -132 -4 -149 -21z m384 -81
c37 -8 85 -24 107 -35 57 -29 108 -93 122 -153 21 -84 -2 -205 -47 -259 -46
-55 -79 -62 -279 -67 l-181 -4 -7 256 c-4 140 -5 260 -1 266 9 15 209 12 286
-4z"/>
<path d="M1646 4685 c-9 -200 -26 -701 -26 -775 0 -53 -1 -56 -32 -68 -22 -8
-34 -8 -38 -1 -4 5 -12 141 -19 302 -7 161 -15 294 -17 296 -12 13 12 -715 31
-914 l14 -150 -5 216 -5 216 36 -11 35 -11 0 -65 c0 -102 21 -393 29 -409 10
-17 19 59 31 260 6 99 6 271 0 470 -5 173 -10 406 -10 519 -1 273 -14 340 -24
125z"/>
<path d="M2064 4825 c10 -40 119 -385 193 -610 41 -126 76 -234 77 -239 0 -5
-42 -24 -94 -42 -101 -36 -63 -38 44 -3 32 11 59 19 61 17 1 -2 26 -70 55
-153 29 -82 63 -179 76 -214 25 -66 25 -91 2 -91 -7 -1 -26 -7 -43 -15 l-30
-15 40 6 c22 4 45 7 52 8 15 1 125 -216 114 -227 -10 -10 -203 -79 -208 -74
-2 2 -68 166 -147 363 -189 471 -522 1241 -533 1231 -2 -2 24 -69 58 -148 105
-248 333 -826 449 -1136 136 -364 146 -385 168 -373 21 11 257 90 271 90 21 0
137 -160 177 -245 78 -165 106 -341 93 -580 -7 -122 -33 -210 -50 -168 -4 12
-20 77 -34 144 -14 67 -28 125 -31 130 -10 17 -34 -4 -34 -31 0 -16 -4 -31 -8
-34 -5 -3 -33 19 -62 49 -57 58 -73 65 -88 39 -7 -13 -17 -6 -58 39 -103 116
-159 239 -179 391 -12 99 -13 100 -14 36 -2 -171 94 -389 229 -515 29 -27 33
-28 43 -13 10 15 20 8 82 -50 l70 -66 25 -110 c23 -99 28 -111 48 -114 35 -5
79 49 105 132 20 63 22 91 21 256 0 159 -3 196 -22 265 -45 162 -134 311 -241
406 -50 43 -58 55 -49 69 9 13 7 24 -9 46 -42 60 -78 146 -183 438 -190 532
-466 1235 -436 1111z"/>
<path d="M4320 4480 c-584 -127 -825 -539 -505 -866 33 -33 69 -66 81 -72 11
-6 -12 21 -51 61 -115 116 -167 246 -146 364 31 168 168 311 382 396 296 119
560 122 735 9 73 -47 119 -99 153 -172 22 -48 26 -68 26 -155 0 -92 -3 -106
-32 -167 -53 -112 -90 -140 -391 -292 -296 -149 -364 -176 -449 -177 -50 0
-54 -2 -33 -11 49 -20 153 -2 278 48 205 82 455 195 510 231 225 149 252 492
54 675 -73 67 -140 103 -238 128 -100 26 -256 26 -374 0z"/>
<path d="M5855 3526 c-210 -40 -260 -142 -194 -399 57 -227 176 -361 393 -442
354 -133 664 -17 756 283 45 146 17 277 -79 372 -67 67 -240 159 -311 166
l-45 4 52 -15 c105 -30 246 -115 307 -186 52 -61 70 -124 63 -223 -7 -105 -18
-142 -70 -218 -81 -121 -189 -178 -348 -186 -244 -11 -506 124 -596 308 -59
122 -102 296 -89 362 17 90 144 152 311 153 50 0 101 -4 115 -8 14 -4 9 1 -12
13 -49 26 -161 34 -253 16z"/>
<path d="M7565 3435 c-5 -2 -23 -6 -38 -9 -42 -10 -112 -79 -138 -139 -22 -47
-24 -66 -24 -192 0 -180 16 -237 83 -304 59 -59 132 -94 264 -126 322 -80 457
-20 499 219 31 178 -40 349 -167 402 -49 21 -65 16 -23 -6 51 -27 105 -93 125
-152 31 -95 13 -274 -37 -354 -32 -53 -98 -78 -199 -77 -106 2 -259 32 -339
68 -72 32 -135 96 -150 151 -20 72 -32 223 -21 286 27 169 128 243 279 204 82
-21 99 -19 36 3 -51 18 -132 32 -150 26z"/>
<path d="M1586 3267 c-16 -12 -16 -14 4 -32 18 -16 24 -17 41 -7 19 12 24 5
80 -115 34 -70 76 -153 95 -184 38 -63 40 -69 20 -69 -7 0 -25 -11 -40 -25
-15 -14 -38 -25 -51 -25 -27 0 -55 33 -55 65 0 12 -7 30 -16 41 -15 18 -15 18
-10 -6 19 -79 20 -75 -16 -76 -18 0 -49 -1 -68 -3 -54 -3 -164 19 -173 35 -4
8 -16 14 -26 14 -10 0 -25 8 -34 18 -16 17 -13 22 43 86 58 65 128 155 144
186 5 8 -11 -7 -35 -35 -24 -27 -81 -89 -128 -138 -79 -81 -84 -89 -75 -115 7
-20 17 -28 39 -30 17 -2 39 -14 50 -27 24 -28 115 -47 213 -45 43 1 69 -3 80
-13 10 -8 38 -17 64 -20 43 -6 51 -4 82 23 21 19 45 30 64 30 64 0 66 47 5
127 -20 26 -69 98 -109 159 -63 97 -145 194 -164 194 -3 0 -14 -6 -24 -13z"/>
</g>
</svg>
